<svg xmlns="http://www.w3.org/2000/svg" width="73.271" height="91" viewBox="0 0 73.271 91">
  <g id="组_604" data-name="组 604" transform="translate(-864 -26)">
    <path id="chart-line" d="M70.981,120.667H9.159V66.833A2.6,2.6,0,0,0,6.869,64H2.29A2.6,2.6,0,0,0,0,66.833v59.5C0,129.462,2.051,132,4.579,132h66.4a2.6,2.6,0,0,0,2.29-2.833V123.5A2.6,2.6,0,0,0,70.981,120.667Zm-4.579-51h-16.9c-3.06,0-4.592,4.578-2.429,7.255l4.637,5.737-10.5,12.994-10.5-12.993a3.987,3.987,0,0,0-6.476,0l-9.83,12.164a3.328,3.328,0,0,0,0,4.007l3.237,4.006a1.994,1.994,0,0,0,3.239,0l6.591-8.158,10.5,12.993a3.987,3.987,0,0,0,6.476,0l13.738-17,4.637,5.737c2.164,2.677,5.863.781,5.863-3.005V72.5A2.6,2.6,0,0,0,66.4,69.667Z" transform="translate(864 -38)" fill="rgba(0,0,0,0.8)"/>
    <text id="Data" transform="translate(880 113)" fill="rgba(0,0,0,0.79)" font-size="20" font-family="HelveticaNeue, Helvetica Neue"><tspan x="0" y="0">Data</tspan></text>
  </g>
</svg>
