<svg xmlns="http://www.w3.org/2000/svg" width="63" height="89" viewBox="0 0 63 89">
  <g id="组_269" data-name="组 269" transform="translate(-653 -26)">
    <text id="Deploy" transform="translate(653 110)" fill="#2185d0" font-size="20" font-family="HelveticaNeue, Helvetica Neue"><tspan x="0" y="0">Deploy</tspan></text>
    <path id="rss" d="M16.582,82.013a8.291,8.291,0,1,1-8.291-8.342A8.317,8.317,0,0,1,16.582,82.013Zm22.742,6.155A39.488,39.488,0,0,0,2.174,50.79,2.075,2.075,0,0,0,0,52.874v6.261a2.08,2.08,0,0,0,1.927,2.086A29.1,29.1,0,0,1,28.956,88.415a2.078,2.078,0,0,0,2.074,1.939h6.223A2.077,2.077,0,0,0,39.324,88.168ZM58,88.205a58.533,58.533,0,0,0-8.091-27.67A57.839,57.839,0,0,0,2.137,32,2.075,2.075,0,0,0,0,34.086v6.261a2.084,2.084,0,0,0,2,2.084A47.8,47.8,0,0,1,47.632,88.342,2.083,2.083,0,0,0,49.7,90.355h6.223A2.077,2.077,0,0,0,58,88.205Z" transform="translate(655 -6)" fill="#2185d0"/>
  </g>
</svg>
