<svg id="组件_239_1" data-name="组件 239 – 1" xmlns="http://www.w3.org/2000/svg" width="323" height="323" viewBox="0 0 323 323">
  <path id="desktop" d="M153.645,0H13.968A13.971,13.971,0,0,0,0,13.968v93.118a13.971,13.971,0,0,0,13.968,13.968H69.838l-4.656,13.968H44.231a6.984,6.984,0,1,0,0,13.968h79.15a6.984,6.984,0,0,0,0-13.968H102.43l-4.656-13.968h55.871a13.971,13.971,0,0,0,13.968-13.968V13.968A13.971,13.971,0,0,0,153.645,0Zm-4.656,102.43H18.624V18.624H148.989Z" transform="translate(78 87)" fill="rgba(0,0,0,0.6)"/>
  <g id="组_615" data-name="组 615" transform="translate(-224 -309)">
    <g id="组件_238_1" data-name="组件 238 – 1" transform="translate(224 309)">
      <g id="矩形_1477" data-name="矩形 1477" fill="rgba(255,255,255,0)" stroke="#707070" stroke-width="1">
        <rect width="323" height="323" rx="20" stroke="none"/>
        <rect x="0.5" y="0.5" width="322" height="322" rx="19.5" fill="none"/>
      </g>
    </g>
  </g>
  <text id="Devices" transform="translate(134 292)" fill="#7e7878" stroke="#7e7878" stroke-width="1" font-size="20" font-family="HelveticaNeue, Helvetica Neue"><tspan x="0" y="0">Devices</tspan></text>
</svg>
