<svg xmlns="http://www.w3.org/2000/svg" xmlns:xlink="http://www.w3.org/1999/xlink" width="302.666" height="57.823" viewBox="0 0 302.666 57.823">
  <defs>
    <clipPath id="clip-path">
      <path id="path38" d="M57.167-58.173h53.668V-116H57.167Z"/>
    </clipPath>
    <clipPath id="clip-path-2">
      <path id="path104" d="M119.833-76.67h240v-32.773h-240Z"/>
    </clipPath>
  </defs>
  <g id="g10" transform="translate(-57.167 115.996)">
    <g id="g12">
      <path id="path14" d="M163.813-69.758a11.989,11.989,0,0,0-.312-3.419,1.023,1.023,0,0,0-.828-.349l-.412-.031a.305.305,0,0,1,.031-.4c.631.034,1.24.049,1.885.049.693,0,1.139-.016,1.736-.049a.289.289,0,0,1,.033.4l-.4.031a.969.969,0,0,0-.827.4,14.96,14.96,0,0,0-.228,3.37v1.87a5.741,5.741,0,0,1-1.16,3.945,4.353,4.353,0,0,1-3.157,1.208,4.705,4.705,0,0,1-3.088-.909c-.873-.727-1.288-1.932-1.288-3.9v-3.9c0-1.719-.035-2-.993-2.083l-.411-.031c-.1-.068-.067-.349.031-.4.825.034,1.388.049,2.049.049.677,0,1.224-.016,2.031-.049a.3.3,0,0,1,.035.4l-.4.031c-.957.083-.992.365-.992,2.083v3.57c0,2.659.825,4.409,3.353,4.409,2.4,0,3.305-1.88,3.305-4.393v-1.9" fill="#22356b"/>
      <path id="path16" d="M185.4-65.807c0,.495,0,2.461.049,2.891a.3.3,0,0,1-.313.182c-.2-.281-.676-.859-2.113-2.495l-3.833-4.362c-.448-.513-1.571-1.867-1.917-2.232h-.033a4.224,4.224,0,0,0-.084,1.073v3.6a12.91,12.91,0,0,0,.3,3.422c.1.182.429.28.844.313l.511.052a.3.3,0,0,1-.036.411c-.74-.031-1.319-.051-1.931-.051-.695,0-1.14.02-1.719.051a.3.3,0,0,1-.033-.411l.445-.052c.383-.05.645-.149.728-.331a15.974,15.974,0,0,0,.215-3.4v-4.773a1.522,1.522,0,0,0-.363-1.192,1.808,1.808,0,0,0-1.025-.394l-.279-.034a.291.291,0,0,1,.031-.414c.693.049,1.569.049,1.867.049a5.2,5.2,0,0,0,.76-.049A22.768,22.768,0,0,0,180.3-70.32l1.6,1.8c1.141,1.271,1.951,2.2,2.729,2.992h.031a1.634,1.634,0,0,0,.068-.7v-3.537a11.679,11.679,0,0,0-.331-3.419c-.1-.151-.364-.25-1.025-.331l-.281-.034c-.115-.1-.1-.365.033-.414.76.034,1.323.049,1.951.049.708,0,1.14-.016,1.7-.049a.291.291,0,0,1,.035.414l-.232.034c-.529.081-.86.214-.925.346a13.372,13.372,0,0,0-.249,3.4v3.951" fill="#22356b"/>
      <path id="path18" d="M197.712-71.393c0-1.753-.033-2.034-1.008-2.115l-.413-.034c-.1-.068-.065-.365.033-.414.825.035,1.388.049,2.083.049.66,0,1.221-.014,2.048-.049.1.049.132.346.033.414l-.412.034c-.976.081-1.009.362-1.009,2.115v5.883c0,1.75.033,1.982,1.009,2.1l.412.052c.1.065.065.362-.033.411-.827-.031-1.388-.049-2.048-.049-.695,0-1.257.018-2.083.049a.318.318,0,0,1-.033-.411l.413-.052c.975-.115,1.008-.346,1.008-2.1v-5.883" fill="#22356b"/>
      <path id="path20" d="M211.094-72.153c-.38-.925-.627-1.273-1.339-1.354l-.3-.034a.279.279,0,0,1,.033-.414c.48.034,1.008.049,1.719.049.727,0,1.305-.016,2-.049a.292.292,0,0,1,.035.414l-.251.034c-.628.081-.757.18-.776.313a20.224,20.224,0,0,0,.825,2.315c.761,1.917,1.521,3.815,2.349,5.7.511-1.091,1.205-2.792,1.585-3.668.477-1.124,1.257-2.991,1.537-3.7a1.751,1.751,0,0,0,.148-.646c0-.115-.167-.247-.745-.313l-.3-.034a.287.287,0,0,1,.033-.414c.461.034,1.092.049,1.716.049.547,0,1.06-.016,1.6-.049a.331.331,0,0,1,.035.414l-.495.034a1.057,1.057,0,0,0-.863.578,40.4,40.4,0,0,0-1.848,3.8L216.91-67.1c-.661,1.523-1.439,3.437-1.719,4.315a.347.347,0,0,1-.179.049.723.723,0,0,1-.252-.049,19.092,19.092,0,0,0-.76-2.2l-2.907-7.172" fill="#22356b"/>
      <path id="path22" d="M230.985-71.424c0-1.721-.033-1.969-1.008-2.083l-.265-.034c-.1-.068-.065-.365.035-.414.712.034,1.273.049,1.949.049H234.8a22.149,22.149,0,0,0,2.228-.049,18.711,18.711,0,0,1,.267,2.2.328.328,0,0,1-.415.031c-.247-.776-.4-1.354-1.255-1.57a7.845,7.845,0,0,0-1.6-.1h-1.191c-.492,0-.492.034-.492.661v3.3c0,.463.049.463.541.463h.963a6.072,6.072,0,0,0,1.4-.1c.2-.066.315-.167.4-.579l.133-.677a.324.324,0,0,1,.427.016c0,.4-.068,1.044-.068,1.672,0,.594.068,1.224.068,1.583a.321.321,0,0,1-.427.018l-.151-.643a.7.7,0,0,0-.511-.628,5.444,5.444,0,0,0-1.272-.083h-.963c-.492,0-.541.016-.541.448v2.328c0,.875.049,1.436.309,1.716.2.2.547.38,2,.38a4.827,4.827,0,0,0,2.115-.247,4.1,4.1,0,0,0,1.172-1.6.3.3,0,0,1,.415.117,14.106,14.106,0,0,1-.745,2.293c-1.485-.03-2.956-.048-4.427-.048H231.7c-.711,0-1.273.018-2.249.048a.316.316,0,0,1-.031-.41l.544-.052c.944-.081,1.025-.331,1.025-2.063v-5.948" fill="#22356b"/>
      <path id="path24" d="M250.249-69.047a1.322,1.322,0,0,0,.049.547c.049.049.3.081,1.137.081a2.761,2.761,0,0,0,1.7-.43,2.369,2.369,0,0,0,.827-2.047,2.434,2.434,0,0,0-2.647-2.547c-1.02,0-1.069.065-1.069.529Zm-1.357-2.362c0-1.57-.049-1.852-.727-1.935l-.528-.065a.278.278,0,0,1,.017-.414c.923-.085,2.065-.133,3.683-.133a5.839,5.839,0,0,1,2.76.5,2.464,2.464,0,0,1,1.371,2.315,3.056,3.056,0,0,1-2.063,2.758c-.084.1,0,.266.08.4a17.74,17.74,0,0,0,3.323,4.393,1.974,1.974,0,0,0,1.141.461.14.14,0,0,1,.016.232,2.622,2.622,0,0,1-.727.083c-1.408,0-2.251-.414-3.42-2.081-.432-.612-1.109-1.753-1.623-2.495a1.174,1.174,0,0,0-1.171-.529c-.745,0-.776.014-.776.365v2.081c0,1.732.031,1.932.992,2.063l.343.052a.321.321,0,0,1-.031.411c-.743-.031-1.3-.049-1.967-.049-.695,0-1.291.018-2.064.049a.314.314,0,0,1-.035-.411l.412-.052c.959-.115.992-.331.992-2.063v-5.932" fill="#22356b"/>
      <path id="path26" d="M268.861-62.734a5.16,5.16,0,0,1-2.579-.612,7.634,7.634,0,0,1-.445-2.312c.083-.117.329-.149.4-.05a3,3,0,0,0,2.841,2.461,1.876,1.876,0,0,0,2.067-1.9,2.48,2.48,0,0,0-1.356-2.313l-1.568-1.026a3.524,3.524,0,0,1-1.787-2.841c0-1.57,1.224-2.844,3.371-2.844a6.481,6.481,0,0,1,1.539.214,2.113,2.113,0,0,0,.575.1,7.227,7.227,0,0,1,.3,2.018c-.065.1-.331.148-.411.049a2.166,2.166,0,0,0-2.249-1.87,1.733,1.733,0,0,0-1.965,1.836,2.591,2.591,0,0,0,1.4,2.031l1.323.828a3.715,3.715,0,0,1,2.065,3.172c0,1.818-1.369,3.057-3.52,3.057" fill="#22356b"/>
      <path id="path28" d="M283.613-71.393c0-1.753-.031-2.034-1.008-2.115l-.413-.034c-.1-.068-.065-.365.033-.414.828.035,1.388.049,2.083.049.663,0,1.221-.014,2.051-.049.1.049.132.346.031.414l-.415.034c-.971.081-1,.362-1,2.115v5.883c0,1.75.033,1.982,1,2.1l.415.052c.1.065.068.362-.031.411-.829-.031-1.388-.049-2.051-.049-.695,0-1.255.018-2.083.049a.318.318,0,0,1-.033-.411l.413-.052c.977-.115,1.008-.346,1.008-2.1v-5.883" fill="#22356b"/>
      <path id="path30" d="M301.959-65.476c0,1.732.031,1.982.987,2.063l.531.052c.1.065.064.362-.033.413-.943-.033-1.5-.051-2.164-.051s-1.24.018-2.3.051a.292.292,0,0,1,0-.413l.6-.052c.943-.081,1.025-.331,1.025-2.063v-7.388c0-.513,0-.527-.5-.527H299.2a3.381,3.381,0,0,0-2.031.413,3.036,3.036,0,0,0-.745,1.142.323.323,0,0,1-.429-.116,17.272,17.272,0,0,0,.628-2.464c.052-.031.265-.049.313,0,.1.529.648.51,1.408.51h6.692c.891,0,1.04-.031,1.287-.461.084-.031.265-.016.3.049a9.914,9.914,0,0,0-.248,2.513c-.064.13-.345.13-.429.031a2.127,2.127,0,0,0-.411-1.206,3.3,3.3,0,0,0-1.92-.413h-1.172c-.495,0-.476.014-.476.561v7.354" fill="#22356b"/>
      <path id="path32" d="M320.79-65.51c0,1.766.1,2.031.992,2.1l.631.052a.323.323,0,0,1-.035.411c-1.025-.031-1.588-.049-2.249-.049-.7,0-1.287.018-2.164.049a.318.318,0,0,1-.035-.411l.516-.052c.956-.1.987-.331.987-2.1v-.844a3.335,3.335,0,0,0-.525-2.047l-1.951-3.8c-.563-1.091-.811-1.175-1.305-1.255l-.463-.083a.3.3,0,0,1,.033-.414c.527.034,1.123.049,1.916.049.761,0,1.355-.016,1.769-.049.148.049.148.315.049.414l-.213.034c-.579.082-.7.164-.7.3a8.181,8.181,0,0,0,.513,1.273c.609,1.221,1.221,2.526,1.868,3.669.509-.878,1.056-1.836,1.551-2.794a14.911,14.911,0,0,0,1.073-2.182c0-.1-.3-.214-.692-.263l-.3-.034a.277.277,0,0,1,.033-.414c.592.034,1.073.049,1.584.049s.976-.016,1.539-.049a.278.278,0,0,1,.033.414l-.463.083c-.86.149-1.357,1.19-2.183,2.612l-1.039,1.8a3.8,3.8,0,0,0-.779,2.677v.859" fill="#22356b"/>
      <g id="g34">
        <g id="g36" clip-path="url(#clip-path)">
          <path id="path42" d="M85.17-58.638a42.279,42.279,0,0,0,4.967-3.25V-78.6L85.17-81.9v23.265" fill="#22356b"/>
          <path id="path44" d="M85.17-93.472l4.967,3.307v-8.444q-2.48-.116-4.967-.135v5.272" fill="#22356b"/>
          <path id="path46" d="M100.075-97.731c-1.651-.211-3.307-.384-4.969-.529v11.4l4.969,3.307v-14.18" fill="#22356b"/>
          <path id="path48" d="M95.106-75.292V-66.2a50.554,50.554,0,0,0,4.969-5.768v-.015l-4.969-3.306" fill="#22356b"/>
          <path id="path50" d="M100.075-71.971a.03.03,0,0,0,.006-.013l-.006,0v.016" fill="#22356b"/>
          <path id="path52" d="M105.037-96.983v16.735l.015.009a57.138,57.138,0,0,0,4.9-15.817l-.169-.033q-2.356-.494-4.744-.895" fill="#22356b"/>
          <path id="path54" d="M90.14-90.162V-78.6l4.966,3.3V-86.858l-4.966-3.3" fill="#22356b"/>
          <path id="path56" d="M100.075-83.552v11.565l.006,0a51.3,51.3,0,0,0,4.956-8.229v-.033l-4.962-3.306" fill="#22356b"/>
          <path id="path58" d="M105.037-80.213a.131.131,0,0,0,.015-.026l-.015-.007v.033" fill="#22356b"/>
          <path id="path60" d="M74.272-77.844a7.813,7.813,0,0,0,3.743-2.328,15.307,15.307,0,0,0-1.9-.552,11.993,11.993,0,0,1-1.838,2.88" fill="#22356b"/>
          <path id="path62" d="M66.391-80.169a7.8,7.8,0,0,0,3.748,2.328A12.085,12.085,0,0,1,68.3-80.726a15.632,15.632,0,0,0-1.907.557" fill="#22356b"/>
          <path id="path64" d="M71.483-92.216a11.072,11.072,0,0,0-1.7,2.485c.532.071,1.1.12,1.7.141v-2.626" fill="#22356b"/>
          <path id="path66" d="M76.612-82.078a16.573,16.573,0,0,1,2.283.708,7.726,7.726,0,0,0,1.074-3.271h-2.9a11.206,11.206,0,0,1-.46,2.563" fill="#22356b"/>
          <path id="path68" d="M70.138-92.872a7.811,7.811,0,0,0-3.748,2.329,15.378,15.378,0,0,0,1.907.553,12.087,12.087,0,0,1,1.841-2.882" fill="#22356b"/>
          <path id="path70" d="M78.014-90.542a7.794,7.794,0,0,0-3.742-2.327,12.069,12.069,0,0,1,1.84,2.88,15.475,15.475,0,0,0,1.9-.553" fill="#22356b"/>
          <path id="path72" d="M77.071-86.073h2.9a7.7,7.7,0,0,0-1.074-3.27,16.531,16.531,0,0,1-2.283.707,11.22,11.22,0,0,1,.459,2.563" fill="#22356b"/>
          <path id="path74" d="M72.916-78.489a10.957,10.957,0,0,0,1.709-2.491c-.535-.071-1.105-.121-1.709-.144v2.635" fill="#22356b"/>
          <path id="path76" d="M71.483-84.64h-2.71a9.641,9.641,0,0,0,.453,2.289,19.583,19.583,0,0,1,2.257-.206V-84.64" fill="#22356b"/>
          <path id="path78" d="M72.916-82.557a19.551,19.551,0,0,1,2.268.206,9.629,9.629,0,0,0,.451-2.288h-2.72v2.082" fill="#22356b"/>
          <path id="path80" d="M74.631-89.732a10.812,10.812,0,0,0-1.715-2.5v2.641c.607-.02,1.18-.07,1.715-.141" fill="#22356b"/>
          <path id="path82" d="M75.636-86.073a9.648,9.648,0,0,0-.449-2.291,20.038,20.038,0,0,1-2.271.209v2.082h2.72" fill="#22356b"/>
          <path id="path84" d="M69.784-80.982a11.279,11.279,0,0,0,1.7,2.484v-2.627q-.9.038-1.7.142" fill="#22356b"/>
          <path id="path86" d="M67.8-88.636a16.652,16.652,0,0,1-2.289-.707,7.794,7.794,0,0,0-1.072,3.27h2.9a11.254,11.254,0,0,1,.46-2.563" fill="#22356b"/>
          <path id="path88" d="M71.483-88.156a19.571,19.571,0,0,1-2.257-.207,9.626,9.626,0,0,0-.453,2.29h2.71v-2.083" fill="#22356b"/>
          <path id="path90" d="M67.337-84.64h-2.9a7.774,7.774,0,0,0,1.072,3.271A17.038,17.038,0,0,1,67.8-82.08a11.166,11.166,0,0,1-.46-2.56" fill="#22356b"/>
          <path id="path92" d="M72.2-94.592a9.246,9.246,0,0,1,9.237,9.235A9.25,9.25,0,0,1,72.2-76.121a9.248,9.248,0,0,1-9.234-9.236A9.245,9.245,0,0,1,72.2-94.592M58.05-96.046C61.7-73.509,75.8-62.512,82.831-58.638V-98.744a125.073,125.073,0,0,0-24.609,2.661l-.172.037" fill="#22356b"/>
          <path id="path94" d="M103.961-101.743A112.3,112.3,0,0,0,84-103.346H84a112.254,112.254,0,0,0-19.957,1.6.292.292,0,0,1-.326-.432l4.249-9.382c.043-.086,2.788-1.445,2.788-1.445a27.6,27.6,0,0,1,13.241,1.064h.015A27.6,27.6,0,0,1,97.248-113s2.744,1.359,2.789,1.445l4.246,9.382a.289.289,0,0,1-.321.432m5.8-11.531-.019-.009A123.27,123.27,0,0,0,84-116a123.071,123.071,0,0,0-25.776,2.723l-.036.009a1.348,1.348,0,0,0-1.021,1.309l0,4.658a71.42,71.42,0,0,0,.52,8.686,127.935,127.935,0,0,1,52.625-.008,72.227,72.227,0,0,0,.517-8.679l0-4.658a1.343,1.343,0,0,0-1.069-1.318" fill="#22356b"/>
          <path id="path96" d="M96.142-111.393l1.787,4.784a25.852,25.852,0,0,0-12.7,1.356v.448c4.812-.181,10.9-.449,15.818.608l-2.682-6.167-2.218-1.029" fill="#22356b"/>
          <path id="path98" d="M70.014-106.609l1.787-4.784-2.217,1.031L66.9-104.2c4.917-1.059,11-.791,15.814-.608v-.448a25.834,25.834,0,0,0-12.7-1.357" fill="#22356b"/>
        </g>
      </g>
      <g id="g100">
        <g id="g102" clip-path="url(#clip-path-2)">
          <path id="path108" d="M126.7-103.563c0-4.212-.378-4.667-2.617-4.857l-.946-.075c-.229-.153-.153-.835.075-.948,2.2.074,3.489.113,5.082.113,1.519,0,2.808-.039,4.324-.113.228.113.305.8.078.948l-.57.075c-2.237.305-2.313.833-2.313,4.857v14.073c0,2.995-.154,5.612-.872,7.355a8.241,8.241,0,0,1-7.475,5.465c-.453,0-1.629-.039-1.629-.8,0-.644.567-1.746,1.364-1.746a4.611,4.611,0,0,1,1.4.229,5.865,5.865,0,0,0,1.593.266,1.619,1.619,0,0,0,1.518-.987c.872-1.784.984-7.472.984-9.521v-14.336" fill="#22356b"/>
          <path id="path110" d="M151.908-93.959c0-5.279-2.336-10.976-8.448-10.976-3.328,0-7.647,2.273-7.647,9.281,0,4.733,2.3,10.88,8.608,10.88,3.84,0,7.487-2.88,7.487-9.185m-19.3-.672A11.064,11.064,0,0,1,144-105.927c7.392,0,11.1,5.344,11.1,10.976A10.924,10.924,0,0,1,144-83.784c-7.1,0-11.393-5.087-11.393-10.847" fill="#22356b"/>
          <path id="path112" d="M162.377-94.63c-1.535,0-1.6.065-1.6,1.027V-89.1c0,3.361.16,3.809,1.951,4l.929.1c.192.127.128.7-.064.8-1.728-.065-2.816-.1-4.065-.1-1.375,0-2.464.065-3.712.1a.621.621,0,0,1-.063-.8l.544-.1c1.791-.32,1.856-.639,1.856-4v-11.519c0-3.36-.224-3.9-1.888-4.032l-.832-.065c-.193-.128-.128-.7.063-.8,1.568.031,2.657.1,4.032.1,1.249,0,2.337-.031,3.712-.1.193.1.259.672.064.8l-.608.065c-1.853.191-1.919.672-1.919,4.032v3.681c0,.991.065,1.025,1.6,1.025h9.152c1.536,0,1.6-.033,1.6-1.025v-3.681c0-3.36-.063-3.841-1.951-4.032l-.608-.065c-.192-.128-.128-.7.064-.8,1.472.066,2.559.1,3.871.1,1.249,0,2.337-.031,3.777-.1.191.1.256.672.064.8l-.672.065c-1.856.191-1.92.672-1.92,4.032V-89.1c0,3.361.064,3.776,1.92,4l.768.1c.191.127.128.7-.065.8-1.535-.065-2.623-.1-3.872-.1-1.312,0-2.463.03-3.871.1a.62.62,0,0,1-.064-.8l.608-.1c1.951-.32,1.951-.639,1.951-4V-93.6c0-.961-.063-1.027-1.6-1.027h-9.152" fill="#22356b"/>
          <path id="path114" d="M200.3-89.735c0,.961,0,4.767.095,5.6a.57.57,0,0,1-.605.353c-.385-.542-1.313-1.661-4.1-4.831l-7.424-8.448c-.865-.992-3.041-3.616-3.712-4.317h-.064a8.041,8.041,0,0,0-.16,2.078v6.977c0,1.5.031,5.664.576,6.621.193.355.832.545,1.632.609l.989.1a.583.583,0,0,1-.061.8c-1.44-.064-2.56-.1-3.745-.1-1.343,0-2.208.033-3.329.1a.591.591,0,0,1-.061-.8l.863-.1c.737-.1,1.249-.287,1.409-.639.447-1.151.416-5.055.416-6.591v-9.248a2.925,2.925,0,0,0-.7-2.3,3.475,3.475,0,0,0-1.984-.77l-.545-.062a.563.563,0,0,1,.065-.8c1.343.1,3.039.1,3.616.1a10.084,10.084,0,0,0,1.471-.1c.641,1.633,4.417,5.857,5.473,7.042l3.1,3.487c2.208,2.464,3.776,4.256,5.281,5.792h.063a3.2,3.2,0,0,0,.129-1.345v-6.847c0-1.5-.033-5.663-.64-6.625-.192-.287-.707-.48-1.985-.64l-.543-.062c-.224-.192-.193-.705.063-.8,1.473.066,2.561.1,3.777.1,1.375,0,2.205-.031,3.295-.1a.566.566,0,0,1,.065.8l-.448.062c-1.024.16-1.665.418-1.795.672-.541,1.152-.479,5.12-.479,6.592v7.648" fill="#22356b"/>
          <path id="path116" d="M208.755-83.784a9.979,9.979,0,0,1-4.992-1.184,14.934,14.934,0,0,1-.865-4.478c.163-.227.641-.289.769-.1.48,1.63,1.791,4.768,5.5,4.768a3.637,3.637,0,0,0,4-3.68c0-1.41-.289-2.976-2.627-4.481l-3.04-1.985c-1.6-1.055-3.453-2.88-3.453-5.5,0-3.04,2.365-5.5,6.527-5.5a12.424,12.424,0,0,1,2.976.415,4.183,4.183,0,0,0,1.119.193,13.986,13.986,0,0,1,.576,3.9c-.127.193-.64.288-.8.1-.416-1.537-1.277-3.617-4.352-3.617-3.135,0-3.808,2.08-3.808,3.555,0,1.853,1.539,3.2,2.721,3.934l2.56,1.6c2.016,1.248,4,3.1,4,6.144,0,3.519-2.656,5.919-6.817,5.919" fill="#22356b"/>
          <path id="path118" d="M234.565-96.545c-1.82,0-1.9.073-1.9,1.211v5.349c0,3.981.189,4.514,2.312,4.743l1.1.115c.225.151.152.833-.077.944-2.048-.074-3.337-.11-4.816-.11-1.632,0-2.923.075-4.4.11a.729.729,0,0,1-.076-.944l.645-.115c2.121-.382,2.2-.761,2.2-4.743V-103.64c0-3.983-.265-4.628-2.237-4.779l-.987-.076c-.228-.151-.152-.835.076-.948,1.857.037,3.148.113,4.78.113,1.479,0,2.768-.037,4.4-.113.228.113.3.8.075.948l-.72.076c-2.2.229-2.275.8-2.275,4.779v4.363c0,1.176.076,1.212,1.9,1.212h10.849c1.82,0,1.895-.036,1.895-1.212v-4.363c0-3.983-.075-4.549-2.313-4.779l-.721-.076c-.227-.151-.151-.835.077-.948,1.741.076,3.035.113,4.589.113,1.479,0,2.769-.037,4.476-.113.227.113.3.8.075.948l-.8.076c-2.2.229-2.276.8-2.276,4.779v13.656c0,3.981.077,4.476,2.276,4.743l.911.115c.228.151.152.833-.077.944-1.819-.074-3.109-.11-4.588-.11-1.555,0-2.92.036-4.589.11a.731.731,0,0,1-.077-.944l.721-.115c2.313-.382,2.313-.761,2.313-4.743v-5.349c0-1.137-.075-1.211-1.895-1.211H234.565" fill="#22356b"/>
          <path id="path120" d="M272.662-93.959c0-5.279-2.335-10.976-8.448-10.976-3.327,0-7.647,2.273-7.647,9.281,0,4.733,2.3,10.88,8.608,10.88,3.841,0,7.487-2.88,7.487-9.185m-19.3-.672a11.064,11.064,0,0,1,11.392-11.3c7.393,0,11.1,5.344,11.1,10.976a10.924,10.924,0,0,1-11.1,11.167c-7.1,0-11.392-5.087-11.392-10.847" fill="#22356b"/>
          <path id="path122" d="M281.654-89.094c0,3.36.064,3.775,2.112,4l.865.1a.627.627,0,0,1-.065.8c-1.823-.066-2.879-.1-4.159-.1-1.345,0-2.5.03-3.9.1a.621.621,0,0,1-.064-.8l.672-.1c1.856-.255,1.919-.641,1.919-4V-100.9c0-2.721-.063-3.266-1.5-3.425l-1.153-.13a.533.533,0,0,1,.065-.8,50.2,50.2,0,0,1,6.335-.257c2.656,0,4.641.353,6.144,1.281a5.529,5.529,0,0,1,2.56,4.8,5.423,5.423,0,0,1-3.2,5.09,10.8,10.8,0,0,1-4.416.959c-.224-.094-.224-.575-.032-.637,3.456-.641,4.7-2.595,4.7-5.378,0-3.105-1.824-5.119-5.151-5.119-1.7,0-1.729.125-1.729,1.152v14.271" fill="#22356b"/>
          <path id="path124" d="M294.97-100.615c0-3.36-.065-3.872-1.921-4.031l-.8-.063c-.192-.13-.127-.706.063-.8,1.568.065,2.593.1,4.032.1,1.248,0,2.337-.031,3.713-.1.192.1.256.672.063.8l-.607.063c-1.857.191-1.921.671-1.921,4.031v3.683c0,.606.064,1.213.419,1.213a1.816,1.816,0,0,0,.895-.351c.448-.383,1.28-1.216,1.632-1.537l3.455-3.423a36.377,36.377,0,0,0,2.5-2.655.948.948,0,0,0,.225-.513c0-.127-.128-.223-.544-.319l-.864-.192a.537.537,0,0,1,.063-.8c1.12.065,2.4.1,3.52.1s2.208-.031,3.167-.1a.594.594,0,0,1,.067.8,7.892,7.892,0,0,0-2.976.9,31.964,31.964,0,0,0-4.481,3.712l-2.879,2.718c-.448.451-.737.737-.737.992,0,.227.193.481.608.992,3.04,3.486,5.5,6.368,8,8.991a3.708,3.708,0,0,0,2.437,1.314l.617.1a.557.557,0,0,1-.065.8c-.832-.065-1.709-.1-3.213-.1-1.311,0-2.435.033-3.905.1-.223-.065-.319-.611-.127-.8l.736-.132c.448-.063.768-.158.768-.316,0-.194-.224-.448-.449-.739-.608-.767-1.439-1.631-2.655-3.008l-2.56-2.879c-1.824-2.047-2.336-2.687-3.1-2.687-.481,0-.545.416-.545,1.536v4.128c0,3.358.064,3.806,1.857,4l.864.1c.191.128.128.7-.064.8-1.568-.065-2.657-.1-3.905-.1-1.312,0-2.4.033-3.711.1a.615.615,0,0,1-.064-.8l.64-.1c1.7-.257,1.761-.642,1.761-4v-11.521" fill="#22356b"/>
          <path id="path126" d="M316.933-100.55c0-3.392-.064-3.937-1.953-4.1l-.8-.065c-.193-.129-.129-.7.063-.8,1.6.066,2.688.1,4.032.1,1.28,0,2.368-.032,3.968-.1.192.1.256.673.064.8l-.8.065c-1.888.158-1.952.7-1.952,4.1v11.391c0,3.394.064,3.842,1.952,4.066l.8.1c.192.129.128.7-.064.8-1.6-.065-2.688-.1-3.968-.1-1.344,0-2.309.033-3.909.1a.621.621,0,0,1-.063-.8l.675-.1c1.889-.224,1.953-.672,1.953-4.066V-100.55" fill="#22356b"/>
          <path id="path128" d="M344.613-89.735c0,.961,0,4.767.1,5.6a.575.575,0,0,1-.608.353c-.384-.542-1.312-1.661-4.1-4.831l-7.424-8.448c-.864-.992-3.041-3.616-3.712-4.317h-.063a8.011,8.011,0,0,0-.163,2.078v6.977c0,1.5.033,5.664.577,6.621.193.355.832.545,1.632.609l.992.1a.587.587,0,0,1-.064.8c-1.44-.064-2.56-.1-3.744-.1-1.343,0-2.208.033-3.327.1a.59.59,0,0,1-.065-.8l.865-.1c.735-.1,1.247-.287,1.407-.639.448-1.151.416-5.055.416-6.591v-9.248a2.93,2.93,0,0,0-.7-2.3,3.475,3.475,0,0,0-1.984-.77l-.544-.062a.561.561,0,0,1,.065-.8c1.344.1,3.039.1,3.615.1a10.1,10.1,0,0,0,1.472-.1c.641,1.633,4.416,5.857,5.471,7.042l3.105,3.487c2.208,2.464,3.775,4.256,5.28,5.792h.064a3.227,3.227,0,0,0,.128-1.345v-6.847c0-1.5-.032-5.663-.64-6.625-.192-.287-.7-.48-1.983-.64l-.544-.062c-.225-.192-.193-.705.061-.8,1.473.066,2.56.1,3.777.1,1.377,0,2.208-.031,3.295-.1a.563.563,0,0,1,.065.8l-.448.062c-1.025.16-1.664.418-1.793.672-.544,1.152-.48,5.12-.48,6.592v7.648" fill="#22356b"/>
          <path id="path130" d="M353.018-83.784a9.982,9.982,0,0,1-4.993-1.184,14.811,14.811,0,0,1-.865-4.478c.163-.227.643-.289.768-.1.481,1.63,1.793,4.768,5.507,4.768a3.636,3.636,0,0,0,4-3.68c0-1.41-.291-2.976-2.627-4.481L351.77-94.92c-1.6-1.055-3.459-2.88-3.459-5.5,0-3.04,2.369-5.5,6.531-5.5a12.432,12.432,0,0,1,2.975.415,4.208,4.208,0,0,0,1.119.193,13.931,13.931,0,0,1,.577,3.9c-.129.193-.64.288-.8.1-.416-1.537-1.279-3.617-4.352-3.617-3.136,0-3.808,2.08-3.808,3.555,0,1.853,1.536,3.2,2.719,3.934l2.561,1.6c2.016,1.248,4,3.1,4,6.144,0,3.519-2.656,5.919-6.815,5.919" fill="#22356b"/>
        </g>
      </g>
    </g>
  </g>
</svg>
