<svg id="组件_240_1" data-name="组件 240 – 1" xmlns="http://www.w3.org/2000/svg" width="323" height="323" viewBox="0 0 323 323">
  <path id="microchip" d="M107.407,12.393V119.8a12.393,12.393,0,0,1-12.393,12.393H37.179A12.393,12.393,0,0,1,24.786,119.8V12.393A12.393,12.393,0,0,1,37.179,0H95.014A12.393,12.393,0,0,1,107.407,12.393Zm24.786,14.975v3.1a1.549,1.549,0,0,1-1.549,1.549H126v1.549a1.549,1.549,0,0,1-1.549,1.549H113.6V22.721h10.844A1.549,1.549,0,0,1,126,24.27v1.549h4.647a1.549,1.549,0,0,1,1.549,1.549Zm0,24.786v3.1a1.549,1.549,0,0,1-1.549,1.549H126v1.549a1.549,1.549,0,0,1-1.549,1.549H113.6V47.507h10.844A1.549,1.549,0,0,1,126,49.056v1.549h4.647A1.549,1.549,0,0,1,132.193,52.154Zm0,24.786v3.1a1.549,1.549,0,0,1-1.549,1.549H126v1.549a1.549,1.549,0,0,1-1.549,1.549H113.6V72.293h10.844A1.549,1.549,0,0,1,126,73.842v1.549h4.647A1.549,1.549,0,0,1,132.193,76.941Zm0,24.786v3.1a1.549,1.549,0,0,1-1.549,1.549H126v1.549a1.549,1.549,0,0,1-1.549,1.549H113.6V97.079h10.844A1.549,1.549,0,0,1,126,98.629v1.549h4.647a1.549,1.549,0,0,1,1.549,1.549ZM7.746,97.079H18.59v12.393H7.746A1.549,1.549,0,0,1,6.2,107.923v-1.549H1.549A1.549,1.549,0,0,1,0,104.825v-3.1a1.549,1.549,0,0,1,1.549-1.549H6.2V98.629A1.549,1.549,0,0,1,7.746,97.079Zm0-24.786H18.59V84.686H7.746A1.549,1.549,0,0,1,6.2,83.137V81.588H1.549A1.549,1.549,0,0,1,0,80.039v-3.1a1.549,1.549,0,0,1,1.549-1.549H6.2V73.842A1.549,1.549,0,0,1,7.746,72.293Zm0-24.786H18.59V59.9H7.746A1.549,1.549,0,0,1,6.2,58.351V56.8H1.549A1.549,1.549,0,0,1,0,55.253v-3.1a1.549,1.549,0,0,1,1.549-1.549H6.2V49.056A1.549,1.549,0,0,1,7.746,47.507Zm0-24.786H18.59V35.114H7.746A1.549,1.549,0,0,1,6.2,33.565V32.016H1.549A1.549,1.549,0,0,1,0,30.466v-3.1a1.549,1.549,0,0,1,1.549-1.549H6.2V24.27A1.549,1.549,0,0,1,7.746,22.721Z" transform="translate(93.077 107.077)" fill="rgba(0,0,0,0.6)"/>
  <g id="组_615" data-name="组 615" transform="translate(-224 -309)">
    <g id="组件_238_1" data-name="组件 238 – 1" transform="translate(224 309)">
      <g id="矩形_1477" data-name="矩形 1477" fill="rgba(255,255,255,0)" stroke="#707070" stroke-width="1">
        <rect width="323" height="323" rx="20" stroke="none"/>
        <rect x="0.5" y="0.5" width="322" height="322" rx="19.5" fill="none"/>
      </g>
    </g>
  </g>
  <text id="Program" transform="translate(121 292)" fill="#7e7878" stroke="#7e7878" stroke-width="1" font-size="20" font-family="HelveticaNeue, Helvetica Neue"><tspan x="0" y="0">Program</tspan></text>
</svg>
