<svg xmlns="http://www.w3.org/2000/svg" width="58" height="85" viewBox="0 0 58 85">
  <g id="组_603" data-name="组 603" transform="translate(-1087 -29)">
    <path id="globe" d="M39.357,26.968C37.661,15.824,33.661,8,29.006,8s-8.655,7.824-10.351,18.968ZM17.778,38.948c0,2.77.14,5.428.386,7.987H39.836c.246-2.558.386-5.216.386-7.987s-.14-5.428-.386-7.987H18.164C17.918,33.52,17.778,36.178,17.778,38.948Zm37.977-11.98A29.812,29.812,0,0,0,37.275,9.3c2.854,4.218,4.819,10.57,5.848,17.67ZM20.725,9.3A29.793,29.793,0,0,0,2.257,26.968H14.889c1.018-7.1,2.982-13.452,5.836-17.67ZM57.006,30.962H43.591c.246,2.621.386,5.3.386,7.987s-.14,5.366-.386,7.987h13.4A32.613,32.613,0,0,0,58,38.948,33.185,33.185,0,0,0,57.006,30.962ZM14.035,38.948c0-2.683.14-5.366.386-7.987H1.006a32.211,32.211,0,0,0,0,15.973h13.4C14.175,44.314,14.035,41.631,14.035,38.948Zm4.62,11.98c1.7,11.144,5.7,18.968,10.351,18.968s8.655-7.824,10.351-18.968ZM37.287,68.6a29.84,29.84,0,0,0,18.48-17.67H43.135C42.105,58.029,40.14,64.381,37.287,68.6ZM2.257,50.928A29.812,29.812,0,0,0,20.737,68.6c-2.854-4.218-4.819-10.57-5.848-17.67H2.257Z" transform="translate(1087 21)" fill="rgba(0,0,0,0.1)"/>
    <text id="Share" transform="translate(1090 110)" fill="rgba(0,0,0,0.1)" font-size="20" font-family="HelveticaNeue, Helvetica Neue"><tspan x="0" y="0">Share</tspan></text>
  </g>
</svg>
